<svg xmlns="http://www.w3.org/2000/svg" width="30" height="30" viewBox="0 0 30 30"><g><g><g><path fill="#222" d="M14.97 15a6.323 6.323 0 0 1-6.315-6.315 6.323 6.323 0 0 1 6.316-6.316 6.323 6.323 0 0 1 6.316 6.316 6.323 6.323 0 0 1-6.316 6.316zm0-14.97c-4.772 0-8.654 3.883-8.654 8.655 0 2.956 1.49 5.57 3.758 7.132a14.913 14.913 0 0 0-5.69 3.569A14.873 14.873 0 0 0 0 29.972h2.34c0-6.966 5.666-12.632 12.63-12.632 4.773 0 8.656-3.883 8.656-8.655 0-4.772-3.883-8.655-8.655-8.655z"/></g><g><path fill="#222" d="M25.091 22.722V17.81h-2.339v4.912H17.84v2.34h4.912v4.912h2.34V25.06h4.912v-2.339z"/></g></g></g></svg>