<svg xmlns="http://www.w3.org/2000/svg" width="30" height="30" viewBox="0 0 30 30"><g><g><g><path fill="#222" d="M11.484 10.359c0 .62-.505 1.125-1.125 1.125h-6.89c-.62 0-1.125-.505-1.125-1.125v-6.89c0-.62.505-1.125 1.125-1.125h6.89c.62 0 1.125.505 1.125 1.125zM10.36 0h-6.89A3.473 3.473 0 0 0 0 3.47v6.889a3.473 3.473 0 0 0 3.47 3.47h6.889a3.473 3.473 0 0 0 3.47-3.47v-6.89A3.473 3.473 0 0 0 10.358 0z"/></g><g><path fill="#222" d="M27.654 10.313c0 .646-.525 1.171-1.171 1.171h-6.797a1.173 1.173 0 0 1-1.172-1.172V3.516c0-.647.525-1.172 1.172-1.172h6.797c.646 0 1.171.525 1.171 1.172zM26.483 0h-6.797a3.52 3.52 0 0 0-3.516 3.516v6.796a3.52 3.52 0 0 0 3.516 3.516h6.797a3.52 3.52 0 0 0 3.515-3.515V3.516A3.52 3.52 0 0 0 26.483 0z"/></g><g><path fill="#222" d="M11.484 26.529c0 .62-.505 1.125-1.125 1.125h-6.89c-.62 0-1.125-.505-1.125-1.125v-6.89c0-.62.505-1.125 1.125-1.125h6.89c.62 0 1.125.505 1.125 1.125zM10.36 16.17h-6.89A3.473 3.473 0 0 0 0 19.64v6.889a3.473 3.473 0 0 0 3.47 3.47h6.889a3.473 3.473 0 0 0 3.47-3.47v-6.89a3.473 3.473 0 0 0-3.47-3.469z"/></g><g><path fill="#222" d="M27.654 26.483c0 .646-.525 1.171-1.171 1.171h-6.797a1.173 1.173 0 0 1-1.172-1.171v-6.797c0-.647.525-1.172 1.172-1.172h6.797c.646 0 1.171.525 1.171 1.172zM26.483 16.17h-6.797a3.52 3.52 0 0 0-3.516 3.516v6.797a3.52 3.52 0 0 0 3.516 3.515h6.797a3.52 3.52 0 0 0 3.515-3.515v-6.797a3.52 3.52 0 0 0-3.515-3.516z"/></g></g></g></svg>