<svg xmlns="http://www.w3.org/2000/svg" width="96" height="17" viewBox="0 0 96 17"><g><g><g><g><g><path fill="#231200" d="M0 17h4V0H0z"/></g><g><path fill="#231200" d="M5 0h8.762c1.46 0 2.58.406 3.363 1.218.782.812 1.172 1.817 1.172 3.014 0 1.006-.278 1.868-.836 2.587-.372.48-.917.858-1.633 1.136 1.088.294 1.89.798 2.402 1.513.513.715.77 1.614.77 2.696 0 .882-.182 1.674-.548 2.377a4.305 4.305 0 0 1-1.498 1.67c-.392.256-.985.441-1.777.557-1.054.155-1.753.232-2.097.232H5zm4.722 6.678h2.035c.73 0 1.238-.141 1.524-.425.286-.283.429-.691.429-1.227 0-.496-.143-.884-.429-1.163-.286-.28-.784-.419-1.493-.419H9.722zm0 6.679h2.387c.805 0 1.374-.16 1.704-.482.33-.322.496-.755.496-1.297 0-.504-.164-.91-.49-1.216-.328-.306-.901-.459-1.72-.459H9.721z"/></g><g><path fill="#231200" d="M30.174 0H35v9.958c0 .988-.144 1.92-.432 2.797a6.116 6.116 0 0 1-1.356 2.303c-.616.656-1.262 1.118-1.938 1.384-.94.372-2.068.558-3.384.558a20.09 20.09 0 0 1-2.493-.17c-.9-.115-1.653-.34-2.258-.68-.605-.337-1.159-.818-1.66-1.44-.502-.623-.845-1.265-1.03-1.926-.3-1.063-.449-2.005-.449-2.826V0h4.826v10.196c0 .91.236 1.623.71 2.136.473.512 1.13.768 1.97.768.832 0 1.485-.252 1.959-.757.473-.505.71-1.221.71-2.147z"/></g><g><path fill="#231200" d="M35 0h5.363l3.148 5.735L46.665 0H52l-6.076 9.88V17h-4.838V9.88z"/></g><g><path fill="#236b75" d="M47 17h5v-5h-5z"/></g><g><path fill="#a36f42" d="M64.166 14.194h-5.478L57.927 17H53l5.87-17h5.262L70 17h-5.052zm-1-3.676l-1.724-6.111-1.706 6.11z"/></g><g><path fill="#236b75" d="M69 17V0h7.854c1.456 0 2.569.139 3.339.418.77.278 1.39.794 1.862 1.548.471.753.707 1.671.707 2.754 0 .943-.18 1.756-.541 2.44a4.51 4.51 0 0 1-1.489 1.665c-.402.27-.954.494-1.654.672.56.21.97.418 1.226.627.174.14.425.437.754.894.33.456.549.808.66 1.056L84 17h-5.325l-2.518-5.195c-.32-.673-.604-1.11-.853-1.31a1.839 1.839 0 0 0-1.155-.394h-.416V17zm4.733-10.112h1.987c.215 0 .63-.077 1.248-.232.312-.07.567-.247.764-.533.198-.286.297-.615.297-.986 0-.549-.156-.97-.468-1.264-.312-.293-.898-.44-1.758-.44h-2.07z"/></g><g><path fill="#6e4061" d="M82 0h14v4.198h-4.697V17h-4.606V4.198H82z"/></g></g></g></g></g></svg>