<svg xmlns="http://www.w3.org/2000/svg" width="24" height="25" viewBox="0 0 24 25"><g><g><g><g><g/><g><g><path fill="#717171" d="M11.915 17.383a.98.98 0 0 1-.982-.977.98.98 0 0 1 .982-.976.98.98 0 0 1 .981.976.98.98 0 0 1-.981.977zm.971-3.738V0h-1.953v13.645a2.934 2.934 0 0 0-1.953 2.761c0 1.273.817 2.359 1.953 2.762V25h1.953v-5.832a2.934 2.934 0 0 0 1.953-2.762 2.934 2.934 0 0 0-1.953-2.761z"/></g><g><path fill="#717171" d="M2.935 8.018a.983.983 0 0 1 0-1.963.983.983 0 0 1 0 1.963zm.971-3.748V0H1.953v4.27A2.934 2.934 0 0 0 0 7.03C0 8.304.817 9.39 1.953 9.793V25h1.953V9.793A2.934 2.934 0 0 0 5.86 7.031 2.934 2.934 0 0 0 3.906 4.27z"/></g><g><path fill="#717171" d="M20.905 11.914a.98.98 0 0 1-.982-.976.98.98 0 0 1 .982-.977.98.98 0 0 1 .981.977.98.98 0 0 1-.981.976zm.971-3.738V0h-1.953v8.176a2.934 2.934 0 0 0-1.953 2.761c0 1.274.817 2.36 1.953 2.762V25h1.953V13.7a2.934 2.934 0 0 0 1.953-2.762 2.934 2.934 0 0 0-1.953-2.762z"/></g></g></g></g></g></g></svg>