<svg xmlns="http://www.w3.org/2000/svg" width="33" height="30" viewBox="0 0 33 30"><g><g><path fill="#222" d="M26.47 22.118c-2.377 1.716-5.832 2.624-9.99 2.624-1.428 0-2.791-.108-4.05-.322l-.718-.122-.474.55a7.224 7.224 0 0 1-3.195 2.153c.259-.7.522-1.54.734-2.496l.218-.986-.906-.447c-3.659-1.804-5.514-4.966-5.514-9.398 0-3.727 1.318-6.568 3.917-8.444 2.377-1.717 5.831-2.625 9.989-2.625 4.157 0 7.612.908 9.989 2.625 2.599 1.876 3.916 4.717 3.916 8.444 0 3.726-1.317 6.567-3.916 8.444zm5.167-14.661c-.838-1.713-2.069-3.165-3.659-4.314C25.159 1.107 21.183.03 16.481.03c-4.703 0-8.679 1.077-11.498 3.113-1.59 1.15-2.82 2.6-3.658 4.314C.445 9.255 0 11.347 0 13.678c0 5.04 2.078 8.895 6.027 11.214-.546 1.927-1.255 3.095-1.262 3.105l-1.222 1.965 2.315.004h.027c.73 0 4.082-.158 6.807-2.892 1.202.168 2.473.252 3.789.252 4.702 0 8.678-1.076 11.497-3.113 1.59-1.15 2.821-2.6 3.659-4.313.879-1.799 1.324-3.892 1.324-6.222 0-2.33-.445-4.423-1.324-6.221z"/></g></g></svg>