<svg xmlns="http://www.w3.org/2000/svg" width="30" height="30" viewBox="0 0 30 30"><g><g><g><path fill="#222" d="M15 15a6.335 6.335 0 0 1-6.328-6.328A6.335 6.335 0 0 1 15 2.344a6.335 6.335 0 0 1 6.328 6.328A6.335 6.335 0 0 1 15 15zm10.607 4.393a14.942 14.942 0 0 0-5.7-3.575 8.669 8.669 0 0 0 3.765-7.146C23.672 3.89 19.782 0 15 0S6.328 3.89 6.328 8.672a8.669 8.669 0 0 0 3.765 7.146 14.942 14.942 0 0 0-5.7 3.575A14.902 14.902 0 0 0 0 30h2.344c0-6.979 5.677-12.656 12.656-12.656 6.979 0 12.656 5.677 12.656 12.656H30c0-4.007-1.56-7.773-4.393-10.607z"/></g></g></g></svg>